<?xml version="1.0" encoding="UTF-8" standalone="no"?>
<!DOCTYPE svg PUBLIC "-//W3C//DTD SVG 1.1//EN" "http://www.w3.org/Graphics/SVG/1.1/DTD/svg11.dtd">
<svg width="100%" height="100%" viewBox="0 0 1024 1024" version="1.1" xmlns="http://www.w3.org/2000/svg" xmlns:xlink="http://www.w3.org/1999/xlink" xml:space="preserve" xmlns:serif="http://www.serif.com/" style="fill-rule:evenodd;clip-rule:evenodd;stroke-linejoin:round;stroke-miterlimit:2;">
    <rect id="Logo-empresa" serif:id="Logo empresa" x="0" y="0" width="1024" height="1024" style="fill:none;"/>
    <g id="Logo-empresa1" serif:id="Logo empresa">
        <g transform="matrix(1,0,0,1,16.1913,26.6935)">
            <g id="Logo">
                <g>
                    <g transform="matrix(1,0,0,1,-16.1913,-4.69348)">
                        <path d="M192.619,604.734L186.076,604.734C181.064,604.627 179.868,602.9 179.868,602.9C179.416,602.598 179.072,602.217 178.812,601.792C178.34,601.684 177.908,601.582 177.524,601.489C174.316,600.716 172.163,600.672 167.668,599.524C167.668,599.524 132.226,592.381 118.296,590.057C106.831,588.145 84.088,585.582 84.088,585.582C84.088,585.582 93.771,587.604 98.048,588.695C98.048,588.695 110.517,591.284 115.283,592.265C120.049,593.246 134.349,596.681 138.414,597.803C142.479,598.924 164.449,604.156 164.449,604.156C164.449,604.156 199.665,614.186 206.366,616.417C206.366,616.417 221.69,621.143 223.58,620.904C223.58,620.904 281.108,621.164 285.762,620.206C285.762,620.206 258.112,616.866 248.804,615.224C239.496,613.581 207.665,607.646 207.665,607.646C205.885,607.382 199.344,606.108 192.619,604.734ZM275.24,601.702L264.312,600.397C262.51,601.48 260.915,602.333 259.827,602.803C259.308,603.027 258.777,603.225 258.246,603.4C283.259,607.437 311.943,612.164 343.946,617.592L401.77,616.736C401.77,616.736 354.931,611.199 300.662,604.734L281.109,604.734C278.414,604.356 276.945,603.151 276.158,601.812L275.24,601.702ZM440.393,588.548L439.703,591.169L437.049,601.002C436.291,602.767 434.928,603.727 433.535,604.24L490.811,612.459L502.865,614.487L494.789,605.863C494.789,605.863 494.43,605.425 493.757,604.671C474.55,604.618 449.182,604.558 448.433,604.612C447.225,604.698 445.205,604.576 443.5,603.02C440.658,600.426 441.849,596.941 441.849,596.941C441.849,596.941 442.914,593.266 444.214,588.731L440.393,588.548ZM642.217,587.879C639.235,592.339 635.576,595.63 632.259,597.974L633.975,603.922L706.524,611.186C706.524,611.186 723.111,614.266 751.31,612.607L816.527,609.577C816.527,609.577 881.51,604.9 890.23,602.625C890.23,602.625 905.206,600.729 916.011,583.857C916.011,583.857 925.005,571.186 928.28,537.094C928.28,537.094 919.788,565.241 913.964,576.403C908.14,587.565 901.832,587.941 891.398,588.414C884.116,588.745 805.763,589.578 805.763,589.578C805.763,589.578 798.045,589.616 793.192,592.498C793.192,592.498 777.116,600.384 762.709,592.346C762.709,592.346 759.069,589.162 745.268,587.493C734.504,586.192 670.053,587.32 642.217,587.879ZM360.165,577.336L342.539,598.739L281.351,598.739L297.592,541.203L328.186,541.203L318.114,577.336L360.165,577.336ZM531.892,590.681C528.535,594.123 523.331,596.809 516.281,598.739L447.539,598.615L454.212,574.944L501.802,574.944C505.915,574.44 507.971,572.426 507.971,568.901C507.971,566.802 507.699,565.376 507.153,564.62C506.607,563.865 505.327,563.151 503.313,562.48L479.014,562.48C473.726,562.48 469.866,561.158 467.431,558.514C464.997,555.87 463.78,551.568 463.78,545.609L463.78,541.203L519.428,541.203C526.227,542.042 530.801,543.385 533.151,545.232C533.487,545.483 535.753,547.959 539.95,552.66C541.545,556.688 542.342,561.263 542.342,566.383C542.342,575.699 538.859,583.799 531.892,590.681ZM447.162,541.203L441.118,564.117L400.201,564.117L396.927,576.077L437.467,576.077L431.424,598.739L357.521,598.739L372.881,541.203L447.162,541.203ZM282.988,541.329C282.988,546.7 279.715,550.645 273.168,553.163C275.602,557.276 276.903,559.458 277.071,559.71C277.994,561.808 278.456,564.494 278.456,567.768L278.456,570.286C277.952,578.595 274.595,585.31 268.384,590.43C263.599,594.542 258.396,597.312 252.772,598.739L184.031,598.613L200.775,541.329L282.988,541.329ZM631.857,590.681C628.5,594.123 623.296,596.809 616.245,598.739L547.504,598.615L554.177,574.944L601.767,574.944C605.88,574.44 607.936,572.426 607.936,568.901C607.936,566.802 607.663,565.376 607.118,564.62C606.572,563.865 605.292,563.151 603.278,562.48L578.979,562.48C573.691,562.48 569.83,561.158 567.396,558.514C564.962,555.87 563.745,551.568 563.745,545.609L563.745,541.203L619.393,541.203C626.191,542.042 630.766,543.385 633.116,545.232C633.452,545.483 635.718,547.959 639.914,552.66C641.509,556.688 642.307,561.263 642.307,566.383C642.307,575.699 638.823,583.799 631.857,590.681ZM179.872,591.106L180.121,590.259C163.027,588.176 149.64,586.517 142.527,585.582C142.527,585.582 155.524,587.412 179.872,591.106ZM243.329,571.041C243.329,568.523 242.448,567.096 240.686,566.76L221.045,566.76L218.653,575.573L238.168,575.573C239.343,575.573 240.497,575.112 241.63,574.189C242.763,573.265 243.329,572.216 243.329,571.041ZM493.899,568.481C493.978,568.634 494.056,568.781 494.132,568.922L501.594,568.926C502.575,568.85 501.896,568.473 501.896,568.473L494.021,568.481L493.899,568.481ZM343.725,537.939C348.463,537.964 353.202,537.989 357.94,538.014L364.544,538.047C365.299,538.553 366.28,538.987 367.389,538.934L365.491,546.148L352.031,546.396L333.045,546.45L334.092,542.667C334.092,542.667 334.585,539.725 333.301,538.078C333.301,538.078 333.418,538.016 333.605,537.885L343.725,537.939ZM289.848,532.364C291.28,533.476 292.737,534.362 294.166,535.067C294.292,535.354 294.452,535.644 294.651,535.931C294.651,535.931 292.791,537.006 292.075,538.847L290.505,544.233L289.898,546.387C289.539,546.269 289.027,546.132 288.396,545.904C288.655,545.014 288.863,544.034 288.942,543.029C288.942,543.029 289.469,539.633 287.718,537.562C287.718,537.562 289.617,535.971 289.832,532.626L289.848,532.364ZM655.763,525.279C669.497,524.641 683.241,521.043 690.622,510.74C690.622,510.74 905.342,519.12 924.317,517.269L916.982,544.719C916.982,544.719 872.572,547.354 818.34,545.898C772.807,544.676 680.314,544.377 640.314,543.892C638.498,541.975 636.333,540.059 634.006,538.757C634.006,538.757 647.883,539.59 650.594,537.892C650.594,537.892 652.407,537.263 653.512,533.469C653.938,532.007 654.829,528.741 655.763,525.279ZM453.171,541.259C453.116,542.198 452.916,542.96 452.916,542.96L452.497,544.551L456.516,544.477C456.516,544.477 456.721,542.834 453.171,541.259ZM455.345,511.868L449.805,533.019L367.719,533.019L381.316,511.868L455.345,511.868ZM283.743,533.019L193.347,533.019L211.477,511.49L267.502,511.49C278.498,511.49 283.995,517.408 283.995,529.242C283.995,530.417 283.911,531.676 283.743,533.019ZM336.495,511.868L330.2,532.893L299.733,532.893L305.524,512.12L336.495,511.868ZM553.169,511.868L547.504,532.767L465.921,532.767C467.683,527.396 470.915,522.653 475.615,518.541C480.735,514.092 485.939,511.868 491.227,511.868L553.169,511.868ZM653.134,511.868L647.468,532.767L565.885,532.767C567.648,527.396 570.879,522.653 575.58,518.541C580.7,514.092 585.903,511.868 591.191,511.868L653.134,511.868ZM483.636,506.554L483.761,506.23C482.21,506.849 481.268,507.101 481.268,507.101C479.712,507.661 478.1,508.117 476.494,508.488C476.359,509.249 476.232,510.017 476.112,510.788C478.655,509.174 481.112,508.074 483.345,507.327L483.636,506.554ZM494.28,505.871L509.675,505.877C509.89,505.558 510.108,505.245 510.328,504.938C517.123,495.475 530.494,485.199 550.051,485.393C564.465,485.782 575.437,492.994 583.315,501.5C583.315,501.5 575.151,477.149 548.46,473.946C524.347,471.35 508.987,485.897 504.589,490.598C502.215,493.135 498.043,498.196 494.28,505.871ZM515.843,456.299L511.483,470.954C515.507,468.385 519.811,466.512 524.696,465.093C538.8,460.999 557.308,463.874 569.204,474.053C578.454,480.999 588.355,495.078 594.784,505.871L598.365,505.872C595.44,493.415 588.328,472.338 572.316,461.15C552.692,447.438 530.145,450.005 515.843,456.299ZM234.063,504.039L202.461,504.039L193.9,469.667L176.021,469.667L150.715,504.039L113.825,504.039L158.899,446.375L221.725,446.375L234.063,504.039ZM391.443,446.501L376.209,504.039L347.377,504.039L362.989,446.501L391.443,446.501ZM323.581,446.501L307.717,503.913L261.636,504.039C247.199,504.039 238.26,499.716 234.819,491.071C233.895,488.721 233.434,486.371 233.434,484.02C233.434,482.677 233.602,481.418 233.937,480.243L243.254,446.501L271.205,446.501L262.266,477.725C261.846,479.152 261.636,480.201 261.636,480.873C261.636,482.552 262.476,483.643 264.154,484.146L284.299,484.146L294.875,446.501L323.581,446.501ZM512.437,446.375L511.933,448.39C510.59,452.754 508.282,460.728 505.009,472.311C502.91,479.614 499.679,485.741 495.314,490.693C487.424,499.591 476.848,504.039 463.586,504.039L448.604,504.039C440.546,504.039 434.167,502.528 429.466,499.507C423.675,495.897 420.779,490.316 420.779,482.761C420.779,478.732 421.408,474.452 422.667,469.919L428.963,446.627L458.298,446.627L449.611,477.222C449.275,478.648 449.107,479.74 449.107,480.495C449.107,482.174 449.863,483.223 451.373,483.643L469.63,483.643C471.896,483.055 473.574,480.915 474.666,477.222L483.731,446.501L512.437,446.375ZM740.611,491.402L759.871,463.801C759.871,463.801 764.181,454.73 775.207,454.808C786.233,454.886 853.069,456.035 889.314,461.494C889.314,461.494 898.447,462.897 898.68,468.1C898.913,473.302 896.394,496.389 896.394,496.389C896.394,496.389 780.474,496.022 740.611,491.402ZM708.362,493.054L733.309,455.28L662.941,454.674C662.941,454.674 656.874,454.674 652.628,459.375C652.628,459.375 648.078,462.863 636.553,481.365C636.553,481.365 631.548,489.403 636.856,491.375C636.856,491.375 640.647,493.498 655.51,493.043L708.362,493.054ZM891.56,454.574C891.56,454.574 802.608,390.348 558.067,414.688C558.067,414.688 710.77,410.896 760.248,447.483C760.248,447.483 843.997,443.215 891.56,454.574ZM241.331,429.514C236.413,432.908 230.918,436.806 225.492,440.866C225.304,441.23 225.133,441.389 225.133,441.389C227.275,442.382 227.802,446.138 227.802,446.138L229.211,452.528C231.392,451.897 233.635,451.275 235.913,450.679C236.682,447.867 237.315,445.552 237.517,444.801C238.152,442.437 239.94,441.483 239.94,441.483C238.49,439.656 239.216,436.942 239.216,436.942L241.331,429.514ZM290.438,442.557C291.117,441.759 291.739,441.388 291.739,441.388C290.201,439.153 291.247,436.359 291.247,436.359C291.247,436.359 295.588,420.314 296.974,415.777C298.36,411.24 303.165,411.508 303.165,411.508L321.054,411.568L332.298,411.568C339.387,413.07 337.257,419.356 337.257,419.356L335.721,424.873L340.889,416.662C343.822,410.581 348.676,411.114 348.676,411.114L351.996,411.138L419.386,411.138C412.026,400.54 402.122,387.865 391.976,379.601C391.976,379.601 385.06,371.594 365.527,372.564C365.527,372.564 340.655,376.447 311.052,387.973C311.052,387.973 298.192,393.432 295.159,405.443C292.125,417.455 290.306,442.569 290.306,442.569L290.438,442.557ZM514.2,438.317L431.229,438.317C432.908,432.61 435.761,427.783 439.79,423.838C444.742,419.054 449.863,416.662 455.151,416.662L497.958,416.662C508.786,416.662 514.2,422.411 514.2,433.911L514.2,438.317ZM279.137,417.543L273.345,438.317L245.017,438.317L250.934,417.669L279.137,417.543ZM331.513,417.543L325.595,438.317L296.889,438.317L302.681,417.543L331.513,417.543ZM219.962,438.317L165.571,438.317L183.702,417.165L215.429,417.165L219.962,438.317ZM424.052,417.165L418.261,438.065L334.409,438.065L347.754,417.165L424.052,417.165ZM428.217,424.643L426.568,430.628L427.637,430.535C428.239,429.339 428.938,428.168 429.681,427.052C429.259,426.348 428.769,425.54 428.217,424.643ZM445.035,412.831C451.732,409.701 456.839,410.589 456.839,410.589L495.784,410.725C501.402,410.671 505.498,411.582 508.398,412.706C547.112,407.262 597.041,401.765 628.685,404.048C628.685,404.048 588.382,372.731 504.593,366.665C420.803,360.598 401.77,365.281 401.77,365.281C401.77,365.281 420.086,381.765 445.035,412.831Z" style="fill:white;fill-rule:nonzero;"/>
                    </g>
                </g>
            </g>
        </g>
    </g>
</svg>
